<?xml version="1.0" encoding="UTF-8" standalone="no"?>
<!DOCTYPE svg PUBLIC "-//W3C//DTD SVG 1.1//EN"
 "http://www.w3.org/Graphics/SVG/1.1/DTD/svg11.dtd">
<!-- Generated by graphviz version 5.0.1 (20220820.1526)
 -->
<!-- Title: G Pages: 1 -->
<svg width="305pt" height="219pt"
 viewBox="0.00 0.00 305.20 219.20" xmlns="http://www.w3.org/2000/svg" xmlns:xlink="http://www.w3.org/1999/xlink">
<g id="graph0" class="graph" transform="scale(1 1) rotate(0) translate(3.6 215.6)">
<title>G</title>
<polygon fill="white" stroke="none" points="-3.6,3.6 -3.6,-215.6 301.6,-215.6 301.6,3.6 -3.6,3.6"/>
<!-- 0_0 -->
<g id="node1" class="node">
<title>0_0</title>
<polygon fill="white" stroke="black" points="54,-212 0,-212 0,-176 54,-176 54,-212"/>
<text text-anchor="middle" x="27" y="-190.3" font-family="Times New Roman,serif" font-size="14.00"> </text>
</g>
<!-- 0_1 -->
<g id="node2" class="node">
<title>0_1</title>
<polygon fill="white" stroke="black" points="115,-212 61,-212 61,-176 115,-176 115,-212"/>
<text text-anchor="middle" x="88" y="-190.3" font-family="Times New Roman,serif" font-size="14.00"> </text>
</g>
<!-- 0_0&#45;&gt;0_1 -->
<g id="edge1" class="edge">
<title>0_0&#45;&gt;0_1</title>
<path fill="none" stroke="white" d="M54.16,-194C54.3,-194 54.44,-194 54.58,-194"/>
<polygon fill="white" stroke="white" points="50.77,-197.5 60.77,-194 50.77,-190.5 50.77,-197.5"/>
</g>
<!-- 1_0 -->
<g id="node6" class="node">
<title>1_0</title>
<polygon fill="white" stroke="black" points="54,-168 0,-168 0,-132 54,-132 54,-168"/>
<text text-anchor="middle" x="27" y="-146.3" font-family="Times New Roman,serif" font-size="14.00"> </text>
</g>
<!-- 0_0&#45;&gt;1_0 -->
<g id="edge5" class="edge">
<title>0_0&#45;&gt;1_0</title>
<path fill="none" stroke="white" d="M27,-175.92C27,-175.76 27,-175.6 27,-175.44"/>
<polygon fill="white" stroke="white" points="30.5,-178.2 27,-168.2 23.5,-178.2 30.5,-178.2"/>
</g>
<!-- 0_2 -->
<g id="node3" class="node">
<title>0_2</title>
<polygon fill="white" stroke="black" points="176,-212 122,-212 122,-176 176,-176 176,-212"/>
<text text-anchor="middle" x="149" y="-190.3" font-family="Times New Roman,serif" font-size="14.00"> </text>
</g>
<!-- 0_1&#45;&gt;0_2 -->
<g id="edge2" class="edge">
<title>0_1&#45;&gt;0_2</title>
<path fill="none" stroke="white" d="M115.16,-194C115.3,-194 115.44,-194 115.58,-194"/>
<polygon fill="white" stroke="white" points="111.77,-197.5 121.77,-194 111.77,-190.5 111.77,-197.5"/>
</g>
<!-- 1_1 -->
<g id="node7" class="node">
<title>1_1</title>
<polygon fill="green" stroke="green" points="115,-168 61,-168 61,-132 115,-132 115,-168"/>
<text text-anchor="middle" x="88" y="-146.3" font-family="Times New Roman,serif" font-size="14.00"> </text>
</g>
<!-- 0_1&#45;&gt;1_1 -->
<g id="edge6" class="edge">
<title>0_1&#45;&gt;1_1</title>
<path fill="none" stroke="white" d="M85.79,-175.92C85.78,-175.76 85.78,-175.6 85.78,-175.44"/>
<polygon fill="white" stroke="white" points="89.27,-178.21 85.78,-168.2 82.27,-178.2 89.27,-178.21"/>
</g>
<!-- 0_3 -->
<g id="node4" class="node">
<title>0_3</title>
<polygon fill="white" stroke="black" points="237,-212 183,-212 183,-176 237,-176 237,-212"/>
<text text-anchor="middle" x="210" y="-190.3" font-family="Times New Roman,serif" font-size="14.00"> </text>
</g>
<!-- 0_2&#45;&gt;0_3 -->
<g id="edge3" class="edge">
<title>0_2&#45;&gt;0_3</title>
<path fill="none" stroke="white" d="M176.16,-194C176.3,-194 176.44,-194 176.58,-194"/>
<polygon fill="white" stroke="white" points="172.77,-197.5 182.77,-194 172.77,-190.5 172.77,-197.5"/>
</g>
<!-- 1_2 -->
<g id="node8" class="node">
<title>1_2</title>
<polygon fill="green" stroke="green" points="176,-168 122,-168 122,-132 176,-132 176,-168"/>
<text text-anchor="middle" x="149" y="-146.3" font-family="Times New Roman,serif" font-size="14.00"> </text>
</g>
<!-- 0_2&#45;&gt;1_2 -->
<g id="edge10" class="edge">
<title>0_2&#45;&gt;1_2</title>
<path fill="none" stroke="white" d="M146.79,-175.92C146.78,-175.76 146.78,-175.6 146.78,-175.44"/>
<polygon fill="white" stroke="white" points="150.27,-178.21 146.78,-168.2 143.27,-178.2 150.27,-178.21"/>
</g>
<!-- 0_4 -->
<g id="node5" class="node">
<title>0_4</title>
<polygon fill="white" stroke="black" points="298,-212 244,-212 244,-176 298,-176 298,-212"/>
<text text-anchor="middle" x="271" y="-190.3" font-family="Times New Roman,serif" font-size="14.00"> </text>
</g>
<!-- 0_3&#45;&gt;0_4 -->
<g id="edge4" class="edge">
<title>0_3&#45;&gt;0_4</title>
<path fill="none" stroke="white" d="M237.16,-194C237.3,-194 237.44,-194 237.58,-194"/>
<polygon fill="white" stroke="white" points="233.77,-197.5 243.77,-194 233.77,-190.5 233.77,-197.5"/>
</g>
<!-- 1_3 -->
<g id="node9" class="node">
<title>1_3</title>
<polygon fill="white" stroke="black" points="237,-168 183,-168 183,-132 237,-132 237,-168"/>
<text text-anchor="middle" x="210" y="-146.3" font-family="Times New Roman,serif" font-size="14.00"> </text>
</g>
<!-- 0_3&#45;&gt;1_3 -->
<g id="edge14" class="edge">
<title>0_3&#45;&gt;1_3</title>
<path fill="none" stroke="white" d="M207.79,-175.92C207.78,-175.76 207.78,-175.6 207.78,-175.44"/>
<polygon fill="white" stroke="white" points="211.27,-178.21 207.78,-168.2 204.27,-178.2 211.27,-178.21"/>
</g>
<!-- 1_4 -->
<g id="node10" class="node">
<title>1_4</title>
<polygon fill="white" stroke="black" points="298,-168 244,-168 244,-132 298,-132 298,-168"/>
<text text-anchor="middle" x="271" y="-146.3" font-family="Times New Roman,serif" font-size="14.00"> </text>
</g>
<!-- 0_4&#45;&gt;1_4 -->
<g id="edge18" class="edge">
<title>0_4&#45;&gt;1_4</title>
<path fill="none" stroke="white" d="M268.79,-175.92C268.78,-175.76 268.78,-175.6 268.78,-175.44"/>
<polygon fill="white" stroke="white" points="272.27,-178.21 268.78,-168.2 265.27,-178.2 272.27,-178.21"/>
</g>
<!-- 1_0&#45;&gt;1_1 -->
<g id="edge8" class="edge">
<title>1_0&#45;&gt;1_1</title>
<path fill="none" stroke="white" d="M54.16,-136.66C54.3,-136.65 54.44,-136.64 54.58,-136.62"/>
<polygon fill="white" stroke="white" points="50.75,-140.1 60.77,-136.66 50.79,-133.1 50.75,-140.1"/>
</g>
<!-- 2_0 -->
<g id="node11" class="node">
<title>2_0</title>
<polygon fill="white" stroke="black" points="54,-124 0,-124 0,-88 54,-88 54,-124"/>
<text text-anchor="middle" x="27" y="-102.3" font-family="Times New Roman,serif" font-size="14.00"> </text>
</g>
<!-- 1_0&#45;&gt;2_0 -->
<g id="edge22" class="edge">
<title>1_0&#45;&gt;2_0</title>
<path fill="none" stroke="white" d="M27,-131.92C27,-131.76 27,-131.6 27,-131.44"/>
<polygon fill="white" stroke="white" points="30.5,-134.2 27,-124.2 23.5,-134.2 30.5,-134.2"/>
</g>
<!-- 1_1&#45;&gt;0_1 -->
<g id="edge7" class="edge">
<title>1_1&#45;&gt;0_1</title>
<path fill="none" stroke="white" d="M90.96,-168.2C90.96,-168.36 90.96,-168.52 90.97,-168.68"/>
<polygon fill="white" stroke="white" points="87.47,-165.91 90.95,-175.92 94.47,-165.92 87.47,-165.91"/>
</g>
<!-- 1_1&#45;&gt;1_0 -->
<g id="edge9" class="edge">
<title>1_1&#45;&gt;1_0</title>
<path fill="none" stroke="white" d="M60.77,-163.34C60.63,-163.36 60.5,-163.37 60.36,-163.38"/>
<polygon fill="white" stroke="white" points="64.19,-159.91 54.16,-163.34 64.14,-166.91 64.19,-159.91"/>
</g>
<!-- 1_1&#45;&gt;1_2 -->
<g id="edge12" class="edge">
<title>1_1&#45;&gt;1_2</title>
<path fill="none" stroke="white" d="M115.16,-136.66C115.3,-136.65 115.44,-136.64 115.58,-136.62"/>
<polygon fill="white" stroke="white" points="111.75,-140.1 121.77,-136.66 111.79,-133.1 111.75,-140.1"/>
</g>
<!-- 2_1 -->
<g id="node12" class="node">
<title>2_1</title>
<polygon fill="green" stroke="green" points="115,-124 61,-124 61,-88 115,-88 115,-124"/>
<text text-anchor="middle" x="88" y="-102.3" font-family="Times New Roman,serif" font-size="14.00"> </text>
</g>
<!-- 1_1&#45;&gt;2_1 -->
<g id="edge23" class="edge">
<title>1_1&#45;&gt;2_1</title>
<path fill="none" stroke="white" d="M85.79,-131.92C85.78,-131.76 85.78,-131.6 85.78,-131.44"/>
<polygon fill="white" stroke="white" points="89.27,-134.21 85.78,-124.2 82.27,-134.2 89.27,-134.21"/>
</g>
<!-- 1_2&#45;&gt;0_2 -->
<g id="edge11" class="edge">
<title>1_2&#45;&gt;0_2</title>
<path fill="none" stroke="white" d="M151.96,-168.2C151.96,-168.36 151.96,-168.52 151.97,-168.68"/>
<polygon fill="white" stroke="white" points="148.47,-165.91 151.95,-175.92 155.47,-165.92 148.47,-165.91"/>
</g>
<!-- 1_2&#45;&gt;1_1 -->
<g id="edge13" class="edge">
<title>1_2&#45;&gt;1_1</title>
<path fill="none" stroke="white" d="M121.77,-163.34C121.63,-163.36 121.5,-163.37 121.36,-163.38"/>
<polygon fill="white" stroke="white" points="125.19,-159.91 115.16,-163.34 125.14,-166.91 125.19,-159.91"/>
</g>
<!-- 1_2&#45;&gt;1_3 -->
<g id="edge16" class="edge">
<title>1_2&#45;&gt;1_3</title>
<path fill="none" stroke="white" d="M176.16,-136.66C176.3,-136.65 176.44,-136.64 176.58,-136.62"/>
<polygon fill="white" stroke="white" points="172.75,-140.1 182.77,-136.66 172.79,-133.1 172.75,-140.1"/>
</g>
<!-- 2_2 -->
<g id="node13" class="node">
<title>2_2</title>
<polygon fill="green" stroke="green" points="176,-124 122,-124 122,-88 176,-88 176,-124"/>
<text text-anchor="middle" x="149" y="-102.3" font-family="Times New Roman,serif" font-size="14.00"> </text>
</g>
<!-- 1_2&#45;&gt;2_2 -->
<g id="edge27" class="edge">
<title>1_2&#45;&gt;2_2</title>
<path fill="none" stroke="white" d="M146.79,-131.92C146.78,-131.76 146.78,-131.6 146.78,-131.44"/>
<polygon fill="white" stroke="white" points="150.27,-134.21 146.78,-124.2 143.27,-134.2 150.27,-134.21"/>
</g>
<!-- 1_3&#45;&gt;0_3 -->
<g id="edge15" class="edge">
<title>1_3&#45;&gt;0_3</title>
<path fill="none" stroke="white" d="M212.96,-168.2C212.96,-168.36 212.96,-168.52 212.97,-168.68"/>
<polygon fill="white" stroke="white" points="209.47,-165.91 212.95,-175.92 216.47,-165.92 209.47,-165.91"/>
</g>
<!-- 1_3&#45;&gt;1_2 -->
<g id="edge17" class="edge">
<title>1_3&#45;&gt;1_2</title>
<path fill="none" stroke="white" d="M182.77,-163.34C182.63,-163.36 182.5,-163.37 182.36,-163.38"/>
<polygon fill="white" stroke="white" points="186.19,-159.91 176.16,-163.34 186.14,-166.91 186.19,-159.91"/>
</g>
<!-- 1_3&#45;&gt;1_4 -->
<g id="edge20" class="edge">
<title>1_3&#45;&gt;1_4</title>
<path fill="none" stroke="white" d="M237.16,-136.66C237.3,-136.65 237.44,-136.64 237.58,-136.62"/>
<polygon fill="white" stroke="white" points="233.75,-140.1 243.77,-136.66 233.79,-133.1 233.75,-140.1"/>
</g>
<!-- 2_3 -->
<g id="node14" class="node">
<title>2_3</title>
<polygon fill="green" stroke="green" points="237,-124 183,-124 183,-88 237,-88 237,-124"/>
<text text-anchor="middle" x="210" y="-102.3" font-family="Times New Roman,serif" font-size="14.00"> </text>
</g>
<!-- 1_3&#45;&gt;2_3 -->
<g id="edge31" class="edge">
<title>1_3&#45;&gt;2_3</title>
<path fill="none" stroke="white" d="M207.79,-131.92C207.78,-131.76 207.78,-131.6 207.78,-131.44"/>
<polygon fill="white" stroke="white" points="211.27,-134.21 207.78,-124.2 204.27,-134.2 211.27,-134.21"/>
</g>
<!-- 1_4&#45;&gt;0_4 -->
<g id="edge19" class="edge">
<title>1_4&#45;&gt;0_4</title>
<path fill="none" stroke="white" d="M273.96,-168.2C273.96,-168.36 273.96,-168.52 273.97,-168.68"/>
<polygon fill="white" stroke="white" points="270.47,-165.91 273.95,-175.92 277.47,-165.92 270.47,-165.91"/>
</g>
<!-- 1_4&#45;&gt;1_3 -->
<g id="edge21" class="edge">
<title>1_4&#45;&gt;1_3</title>
<path fill="none" stroke="white" d="M243.77,-163.34C243.63,-163.36 243.5,-163.37 243.36,-163.38"/>
<polygon fill="white" stroke="white" points="247.19,-159.91 237.16,-163.34 247.14,-166.91 247.19,-159.91"/>
</g>
<!-- 2_4 -->
<g id="node15" class="node">
<title>2_4</title>
<polygon fill="white" stroke="black" points="298,-124 244,-124 244,-88 298,-88 298,-124"/>
<text text-anchor="middle" x="271" y="-102.3" font-family="Times New Roman,serif" font-size="14.00"> </text>
</g>
<!-- 1_4&#45;&gt;2_4 -->
<g id="edge35" class="edge">
<title>1_4&#45;&gt;2_4</title>
<path fill="none" stroke="white" d="M268.79,-131.92C268.78,-131.76 268.78,-131.6 268.78,-131.44"/>
<polygon fill="white" stroke="white" points="272.27,-134.21 268.78,-124.2 265.27,-134.2 272.27,-134.21"/>
</g>
<!-- 2_0&#45;&gt;2_1 -->
<g id="edge25" class="edge">
<title>2_0&#45;&gt;2_1</title>
<path fill="none" stroke="white" d="M54.16,-92.66C54.3,-92.65 54.44,-92.64 54.58,-92.62"/>
<polygon fill="white" stroke="white" points="50.75,-96.1 60.77,-92.66 50.79,-89.1 50.75,-96.1"/>
</g>
<!-- 3_0 -->
<g id="node16" class="node">
<title>3_0</title>
<polygon fill="white" stroke="black" points="54,-80 0,-80 0,-44 54,-44 54,-80"/>
<text text-anchor="middle" x="27" y="-58.3" font-family="Times New Roman,serif" font-size="14.00"> </text>
</g>
<!-- 2_0&#45;&gt;3_0 -->
<g id="edge39" class="edge">
<title>2_0&#45;&gt;3_0</title>
<path fill="none" stroke="white" d="M27,-87.92C27,-87.76 27,-87.6 27,-87.44"/>
<polygon fill="white" stroke="white" points="30.5,-90.2 27,-80.2 23.5,-90.2 30.5,-90.2"/>
</g>
<!-- 2_1&#45;&gt;1_1 -->
<g id="edge24" class="edge">
<title>2_1&#45;&gt;1_1</title>
<path fill="none" stroke="white" d="M90.96,-124.2C90.96,-124.36 90.96,-124.52 90.97,-124.68"/>
<polygon fill="white" stroke="white" points="87.47,-121.91 90.95,-131.92 94.47,-121.92 87.47,-121.91"/>
</g>
<!-- 2_1&#45;&gt;2_0 -->
<g id="edge26" class="edge">
<title>2_1&#45;&gt;2_0</title>
<path fill="none" stroke="white" d="M60.77,-119.34C60.63,-119.36 60.5,-119.37 60.36,-119.38"/>
<polygon fill="white" stroke="white" points="64.19,-115.91 54.16,-119.34 64.14,-122.91 64.19,-115.91"/>
</g>
<!-- 2_1&#45;&gt;2_2 -->
<g id="edge29" class="edge">
<title>2_1&#45;&gt;2_2</title>
<path fill="none" stroke="white" d="M115.16,-92.66C115.3,-92.65 115.44,-92.64 115.58,-92.62"/>
<polygon fill="white" stroke="white" points="111.75,-96.1 121.77,-92.66 111.79,-89.1 111.75,-96.1"/>
</g>
<!-- 3_1 -->
<g id="node17" class="node">
<title>3_1</title>
<polygon fill="white" stroke="black" points="115,-80 61,-80 61,-44 115,-44 115,-80"/>
<text text-anchor="middle" x="88" y="-58.3" font-family="Times New Roman,serif" font-size="14.00"> </text>
</g>
<!-- 2_1&#45;&gt;3_1 -->
<g id="edge40" class="edge">
<title>2_1&#45;&gt;3_1</title>
<path fill="none" stroke="white" d="M85.79,-87.92C85.78,-87.76 85.78,-87.6 85.78,-87.44"/>
<polygon fill="white" stroke="white" points="89.27,-90.21 85.78,-80.2 82.27,-90.2 89.27,-90.21"/>
</g>
<!-- 2_2&#45;&gt;1_2 -->
<g id="edge28" class="edge">
<title>2_2&#45;&gt;1_2</title>
<path fill="none" stroke="white" d="M151.96,-124.2C151.96,-124.36 151.96,-124.52 151.97,-124.68"/>
<polygon fill="white" stroke="white" points="148.47,-121.91 151.95,-131.92 155.47,-121.92 148.47,-121.91"/>
</g>
<!-- 2_2&#45;&gt;2_1 -->
<g id="edge30" class="edge">
<title>2_2&#45;&gt;2_1</title>
<path fill="none" stroke="white" d="M121.77,-119.34C121.63,-119.36 121.5,-119.37 121.36,-119.38"/>
<polygon fill="white" stroke="white" points="125.19,-115.91 115.16,-119.34 125.14,-122.91 125.19,-115.91"/>
</g>
<!-- 2_2&#45;&gt;2_3 -->
<g id="edge33" class="edge">
<title>2_2&#45;&gt;2_3</title>
<path fill="none" stroke="white" d="M176.16,-92.66C176.3,-92.65 176.44,-92.64 176.58,-92.62"/>
<polygon fill="white" stroke="white" points="172.75,-96.1 182.77,-92.66 172.79,-89.1 172.75,-96.1"/>
</g>
<!-- 3_2 -->
<g id="node18" class="node">
<title>3_2</title>
<polygon fill="green" stroke="green" points="176,-80 122,-80 122,-44 176,-44 176,-80"/>
<text text-anchor="middle" x="149" y="-58.3" font-family="Times New Roman,serif" font-size="14.00"> </text>
</g>
<!-- 2_2&#45;&gt;3_2 -->
<g id="edge44" class="edge">
<title>2_2&#45;&gt;3_2</title>
<path fill="none" stroke="white" d="M146.79,-87.92C146.78,-87.76 146.78,-87.6 146.78,-87.44"/>
<polygon fill="white" stroke="white" points="150.27,-90.21 146.78,-80.2 143.27,-90.2 150.27,-90.21"/>
</g>
<!-- 2_3&#45;&gt;1_3 -->
<g id="edge32" class="edge">
<title>2_3&#45;&gt;1_3</title>
<path fill="none" stroke="white" d="M212.96,-124.2C212.96,-124.36 212.96,-124.52 212.97,-124.68"/>
<polygon fill="white" stroke="white" points="209.47,-121.91 212.95,-131.92 216.47,-121.92 209.47,-121.91"/>
</g>
<!-- 2_3&#45;&gt;2_2 -->
<g id="edge34" class="edge">
<title>2_3&#45;&gt;2_2</title>
<path fill="none" stroke="white" d="M182.77,-119.34C182.63,-119.36 182.5,-119.37 182.36,-119.38"/>
<polygon fill="white" stroke="white" points="186.19,-115.91 176.16,-119.34 186.14,-122.91 186.19,-115.91"/>
</g>
<!-- 2_3&#45;&gt;2_4 -->
<g id="edge37" class="edge">
<title>2_3&#45;&gt;2_4</title>
<path fill="none" stroke="white" d="M237.16,-92.66C237.3,-92.65 237.44,-92.64 237.58,-92.62"/>
<polygon fill="white" stroke="white" points="233.75,-96.1 243.77,-92.66 233.79,-89.1 233.75,-96.1"/>
</g>
<!-- 3_3 -->
<g id="node19" class="node">
<title>3_3</title>
<polygon fill="white" stroke="black" points="237,-80 183,-80 183,-44 237,-44 237,-80"/>
<text text-anchor="middle" x="210" y="-58.3" font-family="Times New Roman,serif" font-size="14.00"> </text>
</g>
<!-- 2_3&#45;&gt;3_3 -->
<g id="edge48" class="edge">
<title>2_3&#45;&gt;3_3</title>
<path fill="none" stroke="white" d="M207.79,-87.92C207.78,-87.76 207.78,-87.6 207.78,-87.44"/>
<polygon fill="white" stroke="white" points="211.27,-90.21 207.78,-80.2 204.27,-90.2 211.27,-90.21"/>
</g>
<!-- 2_4&#45;&gt;1_4 -->
<g id="edge36" class="edge">
<title>2_4&#45;&gt;1_4</title>
<path fill="none" stroke="white" d="M273.96,-124.2C273.96,-124.36 273.96,-124.52 273.97,-124.68"/>
<polygon fill="white" stroke="white" points="270.47,-121.91 273.95,-131.92 277.47,-121.92 270.47,-121.91"/>
</g>
<!-- 2_4&#45;&gt;2_3 -->
<g id="edge38" class="edge">
<title>2_4&#45;&gt;2_3</title>
<path fill="none" stroke="white" d="M243.77,-119.34C243.63,-119.36 243.5,-119.37 243.36,-119.38"/>
<polygon fill="white" stroke="white" points="247.19,-115.91 237.16,-119.34 247.14,-122.91 247.19,-115.91"/>
</g>
<!-- 3_4 -->
<g id="node20" class="node">
<title>3_4</title>
<polygon fill="white" stroke="black" points="298,-80 244,-80 244,-44 298,-44 298,-80"/>
<text text-anchor="middle" x="271" y="-58.3" font-family="Times New Roman,serif" font-size="14.00"> </text>
</g>
<!-- 2_4&#45;&gt;3_4 -->
<g id="edge52" class="edge">
<title>2_4&#45;&gt;3_4</title>
<path fill="none" stroke="white" d="M268.79,-87.92C268.78,-87.76 268.78,-87.6 268.78,-87.44"/>
<polygon fill="white" stroke="white" points="272.27,-90.21 268.78,-80.2 265.27,-90.2 272.27,-90.21"/>
</g>
<!-- 3_0&#45;&gt;3_1 -->
<g id="edge42" class="edge">
<title>3_0&#45;&gt;3_1</title>
<path fill="none" stroke="white" d="M54.16,-48.66C54.3,-48.65 54.44,-48.64 54.58,-48.62"/>
<polygon fill="white" stroke="white" points="50.75,-52.1 60.77,-48.66 50.79,-45.1 50.75,-52.1"/>
</g>
<!-- 4_0 -->
<g id="node21" class="node">
<title>4_0</title>
<polygon fill="white" stroke="black" points="54,-36 0,-36 0,0 54,0 54,-36"/>
<text text-anchor="middle" x="27" y="-14.3" font-family="Times New Roman,serif" font-size="14.00"> </text>
</g>
<!-- 3_0&#45;&gt;4_0 -->
<g id="edge56" class="edge">
<title>3_0&#45;&gt;4_0</title>
<path fill="none" stroke="white" d="M27,-43.92C27,-43.76 27,-43.6 27,-43.44"/>
<polygon fill="white" stroke="white" points="30.5,-46.2 27,-36.2 23.5,-46.2 30.5,-46.2"/>
</g>
<!-- 3_1&#45;&gt;2_1 -->
<g id="edge41" class="edge">
<title>3_1&#45;&gt;2_1</title>
<path fill="none" stroke="white" d="M90.96,-80.2C90.96,-80.36 90.96,-80.52 90.97,-80.68"/>
<polygon fill="white" stroke="white" points="87.47,-77.91 90.95,-87.92 94.47,-77.92 87.47,-77.91"/>
</g>
<!-- 3_1&#45;&gt;3_0 -->
<g id="edge43" class="edge">
<title>3_1&#45;&gt;3_0</title>
<path fill="none" stroke="white" d="M60.77,-75.34C60.63,-75.36 60.5,-75.37 60.36,-75.38"/>
<polygon fill="white" stroke="white" points="64.19,-71.91 54.16,-75.34 64.14,-78.91 64.19,-71.91"/>
</g>
<!-- 3_1&#45;&gt;3_2 -->
<g id="edge46" class="edge">
<title>3_1&#45;&gt;3_2</title>
<path fill="none" stroke="white" d="M115.16,-48.66C115.3,-48.65 115.44,-48.64 115.58,-48.62"/>
<polygon fill="white" stroke="white" points="111.75,-52.1 121.77,-48.66 111.79,-45.1 111.75,-52.1"/>
</g>
<!-- 4_1 -->
<g id="node22" class="node">
<title>4_1</title>
<polygon fill="white" stroke="black" points="115,-36 61,-36 61,0 115,0 115,-36"/>
<text text-anchor="middle" x="88" y="-14.3" font-family="Times New Roman,serif" font-size="14.00"> </text>
</g>
<!-- 3_1&#45;&gt;4_1 -->
<g id="edge57" class="edge">
<title>3_1&#45;&gt;4_1</title>
<path fill="none" stroke="white" d="M85.79,-43.92C85.78,-43.76 85.78,-43.6 85.78,-43.44"/>
<polygon fill="white" stroke="white" points="89.27,-46.21 85.78,-36.2 82.27,-46.2 89.27,-46.21"/>
</g>
<!-- 3_2&#45;&gt;2_2 -->
<g id="edge45" class="edge">
<title>3_2&#45;&gt;2_2</title>
<path fill="none" stroke="white" d="M151.96,-80.2C151.96,-80.36 151.96,-80.52 151.97,-80.68"/>
<polygon fill="white" stroke="white" points="148.47,-77.91 151.95,-87.92 155.47,-77.92 148.47,-77.91"/>
</g>
<!-- 3_2&#45;&gt;3_1 -->
<g id="edge47" class="edge">
<title>3_2&#45;&gt;3_1</title>
<path fill="none" stroke="white" d="M121.77,-75.34C121.63,-75.36 121.5,-75.37 121.36,-75.38"/>
<polygon fill="white" stroke="white" points="125.19,-71.91 115.16,-75.34 125.14,-78.91 125.19,-71.91"/>
</g>
<!-- 3_2&#45;&gt;3_3 -->
<g id="edge50" class="edge">
<title>3_2&#45;&gt;3_3</title>
<path fill="none" stroke="white" d="M176.16,-48.66C176.3,-48.65 176.44,-48.64 176.58,-48.62"/>
<polygon fill="white" stroke="white" points="172.75,-52.1 182.77,-48.66 172.79,-45.1 172.75,-52.1"/>
</g>
<!-- 4_2 -->
<g id="node23" class="node">
<title>4_2</title>
<polygon fill="white" stroke="black" points="176,-36 122,-36 122,0 176,0 176,-36"/>
<text text-anchor="middle" x="149" y="-14.3" font-family="Times New Roman,serif" font-size="14.00"> </text>
</g>
<!-- 3_2&#45;&gt;4_2 -->
<g id="edge61" class="edge">
<title>3_2&#45;&gt;4_2</title>
<path fill="none" stroke="white" d="M146.79,-43.92C146.78,-43.76 146.78,-43.6 146.78,-43.44"/>
<polygon fill="white" stroke="white" points="150.27,-46.21 146.78,-36.2 143.27,-46.2 150.27,-46.21"/>
</g>
<!-- 3_3&#45;&gt;2_3 -->
<g id="edge49" class="edge">
<title>3_3&#45;&gt;2_3</title>
<path fill="none" stroke="white" d="M212.96,-80.2C212.96,-80.36 212.96,-80.52 212.97,-80.68"/>
<polygon fill="white" stroke="white" points="209.47,-77.91 212.95,-87.92 216.47,-77.92 209.47,-77.91"/>
</g>
<!-- 3_3&#45;&gt;3_2 -->
<g id="edge51" class="edge">
<title>3_3&#45;&gt;3_2</title>
<path fill="none" stroke="white" d="M182.77,-75.34C182.63,-75.36 182.5,-75.37 182.36,-75.38"/>
<polygon fill="white" stroke="white" points="186.19,-71.91 176.16,-75.34 186.14,-78.91 186.19,-71.91"/>
</g>
<!-- 3_3&#45;&gt;3_4 -->
<g id="edge54" class="edge">
<title>3_3&#45;&gt;3_4</title>
<path fill="none" stroke="white" d="M237.16,-48.66C237.3,-48.65 237.44,-48.64 237.58,-48.62"/>
<polygon fill="white" stroke="white" points="233.75,-52.1 243.77,-48.66 233.79,-45.1 233.75,-52.1"/>
</g>
<!-- 4_3 -->
<g id="node24" class="node">
<title>4_3</title>
<polygon fill="green" stroke="green" points="237,-36 183,-36 183,0 237,0 237,-36"/>
<text text-anchor="middle" x="210" y="-14.3" font-family="Times New Roman,serif" font-size="14.00"> </text>
</g>
<!-- 3_3&#45;&gt;4_3 -->
<g id="edge65" class="edge">
<title>3_3&#45;&gt;4_3</title>
<path fill="none" stroke="white" d="M207.79,-43.92C207.78,-43.76 207.78,-43.6 207.78,-43.44"/>
<polygon fill="white" stroke="white" points="211.27,-46.21 207.78,-36.2 204.27,-46.2 211.27,-46.21"/>
</g>
<!-- 3_4&#45;&gt;2_4 -->
<g id="edge53" class="edge">
<title>3_4&#45;&gt;2_4</title>
<path fill="none" stroke="white" d="M273.96,-80.2C273.96,-80.36 273.96,-80.52 273.97,-80.68"/>
<polygon fill="white" stroke="white" points="270.47,-77.91 273.95,-87.92 277.47,-77.92 270.47,-77.91"/>
</g>
<!-- 3_4&#45;&gt;3_3 -->
<g id="edge55" class="edge">
<title>3_4&#45;&gt;3_3</title>
<path fill="none" stroke="white" d="M243.77,-75.34C243.63,-75.36 243.5,-75.37 243.36,-75.38"/>
<polygon fill="white" stroke="white" points="247.19,-71.91 237.16,-75.34 247.14,-78.91 247.19,-71.91"/>
</g>
<!-- 4_4 -->
<g id="node25" class="node">
<title>4_4</title>
<polygon fill="white" stroke="black" points="298,-36 244,-36 244,0 298,0 298,-36"/>
<text text-anchor="middle" x="271" y="-14.3" font-family="Times New Roman,serif" font-size="14.00"> </text>
</g>
<!-- 3_4&#45;&gt;4_4 -->
<g id="edge69" class="edge">
<title>3_4&#45;&gt;4_4</title>
<path fill="none" stroke="white" d="M268.79,-43.92C268.78,-43.76 268.78,-43.6 268.78,-43.44"/>
<polygon fill="white" stroke="white" points="272.27,-46.21 268.78,-36.2 265.27,-46.2 272.27,-46.21"/>
</g>
<!-- 4_0&#45;&gt;4_1 -->
<g id="edge59" class="edge">
<title>4_0&#45;&gt;4_1</title>
<path fill="none" stroke="white" d="M54.16,-4.66C54.3,-4.65 54.44,-4.64 54.58,-4.62"/>
<polygon fill="white" stroke="white" points="50.75,-8.1 60.77,-4.66 50.79,-1.1 50.75,-8.1"/>
</g>
<!-- 4_1&#45;&gt;3_1 -->
<g id="edge58" class="edge">
<title>4_1&#45;&gt;3_1</title>
<path fill="none" stroke="white" d="M90.96,-36.2C90.96,-36.36 90.96,-36.52 90.97,-36.68"/>
<polygon fill="white" stroke="white" points="87.47,-33.91 90.95,-43.92 94.47,-33.92 87.47,-33.91"/>
</g>
<!-- 4_1&#45;&gt;4_0 -->
<g id="edge60" class="edge">
<title>4_1&#45;&gt;4_0</title>
<path fill="none" stroke="white" d="M60.77,-31.34C60.63,-31.36 60.5,-31.37 60.36,-31.38"/>
<polygon fill="white" stroke="white" points="64.19,-27.91 54.16,-31.34 64.14,-34.91 64.19,-27.91"/>
</g>
<!-- 4_1&#45;&gt;4_2 -->
<g id="edge63" class="edge">
<title>4_1&#45;&gt;4_2</title>
<path fill="none" stroke="white" d="M115.16,-4.66C115.3,-4.65 115.44,-4.64 115.58,-4.62"/>
<polygon fill="white" stroke="white" points="111.75,-8.1 121.77,-4.66 111.79,-1.1 111.75,-8.1"/>
</g>
<!-- 4_2&#45;&gt;3_2 -->
<g id="edge62" class="edge">
<title>4_2&#45;&gt;3_2</title>
<path fill="none" stroke="white" d="M151.96,-36.2C151.96,-36.36 151.96,-36.52 151.97,-36.68"/>
<polygon fill="white" stroke="white" points="148.47,-33.91 151.95,-43.92 155.47,-33.92 148.47,-33.91"/>
</g>
<!-- 4_2&#45;&gt;4_1 -->
<g id="edge64" class="edge">
<title>4_2&#45;&gt;4_1</title>
<path fill="none" stroke="white" d="M121.77,-31.34C121.63,-31.36 121.5,-31.37 121.36,-31.38"/>
<polygon fill="white" stroke="white" points="125.19,-27.91 115.16,-31.34 125.14,-34.91 125.19,-27.91"/>
</g>
<!-- 4_2&#45;&gt;4_3 -->
<g id="edge67" class="edge">
<title>4_2&#45;&gt;4_3</title>
<path fill="none" stroke="white" d="M176.16,-4.66C176.3,-4.65 176.44,-4.64 176.58,-4.62"/>
<polygon fill="white" stroke="white" points="172.75,-8.1 182.77,-4.66 172.79,-1.1 172.75,-8.1"/>
</g>
<!-- 4_3&#45;&gt;3_3 -->
<g id="edge66" class="edge">
<title>4_3&#45;&gt;3_3</title>
<path fill="none" stroke="white" d="M212.96,-36.2C212.96,-36.36 212.96,-36.52 212.97,-36.68"/>
<polygon fill="white" stroke="white" points="209.47,-33.91 212.95,-43.92 216.47,-33.92 209.47,-33.91"/>
</g>
<!-- 4_3&#45;&gt;4_2 -->
<g id="edge68" class="edge">
<title>4_3&#45;&gt;4_2</title>
<path fill="none" stroke="white" d="M182.77,-31.34C182.63,-31.36 182.5,-31.37 182.36,-31.38"/>
<polygon fill="white" stroke="white" points="186.19,-27.91 176.16,-31.34 186.14,-34.91 186.19,-27.91"/>
</g>
<!-- 4_3&#45;&gt;4_4 -->
<g id="edge71" class="edge">
<title>4_3&#45;&gt;4_4</title>
<path fill="none" stroke="white" d="M237.16,-4.66C237.3,-4.65 237.44,-4.64 237.58,-4.62"/>
<polygon fill="white" stroke="white" points="233.75,-8.1 243.77,-4.66 233.79,-1.1 233.75,-8.1"/>
</g>
<!-- 4_4&#45;&gt;3_4 -->
<g id="edge70" class="edge">
<title>4_4&#45;&gt;3_4</title>
<path fill="none" stroke="white" d="M273.96,-36.2C273.96,-36.36 273.96,-36.52 273.97,-36.68"/>
<polygon fill="white" stroke="white" points="270.47,-33.91 273.95,-43.92 277.47,-33.92 270.47,-33.91"/>
</g>
<!-- 4_4&#45;&gt;4_3 -->
<g id="edge72" class="edge">
<title>4_4&#45;&gt;4_3</title>
<path fill="none" stroke="white" d="M243.77,-31.34C243.63,-31.36 243.5,-31.37 243.36,-31.38"/>
<polygon fill="white" stroke="white" points="247.19,-27.91 237.16,-31.34 247.14,-34.91 247.19,-27.91"/>
</g>
</g>
</svg>
